<?xml version="1.0" encoding="UTF-8"?>
<svg id="Layer_1" data-name="Layer 1" xmlns="http://www.w3.org/2000/svg" viewBox="0 0 52.15 52.15">
  <defs>
    <style>
      .cls-1 {
        fill: #caedec;
      }

      .cls-2 {
        fill: #fff;
      }
    </style>
  </defs>
  <g>
    <path class="cls-2" d="M26.08,51.15c-13.83,0-25.08-11.25-25.08-25.08S12.25,1,26.08,1s25.08,11.25,25.08,25.08-11.25,25.08-25.08,25.08ZM26.08,5C14.45,5,5,14.45,5,26.08s9.45,21.08,21.08,21.08,21.08-9.46,21.08-21.08S37.7,5,26.08,5Z"/>
    <path class="cls-1" d="M26.08,1.5c13.55,0,24.58,11.02,24.58,24.58s-11.02,24.58-24.58,24.58S1.5,39.63,1.5,26.08,12.52,1.5,26.08,1.5M26.08,47.65c11.9,0,21.58-9.68,21.58-21.58S37.97,4.5,26.08,4.5,4.5,14.18,4.5,26.08s9.68,21.58,21.58,21.58M26.08.5C11.97.5.5,11.97.5,26.08s11.47,25.58,25.58,25.58,25.58-11.47,25.58-25.58S40.18.5,26.08.5h0ZM26.08,46.65c-11.35,0-20.58-9.23-20.58-20.58S14.73,5.5,26.08,5.5s20.58,9.23,20.58,20.58-9.23,20.58-20.58,20.58h0Z"/>
  </g>
  <g>
    <circle class="cls-2" cx="26.08" cy="26.08" r="4.5"/>
    <path class="cls-1" d="M26.08,22.08c2.21,0,4,1.79,4,4s-1.79,4-4,4-4-1.79-4-4,1.79-4,4-4M26.08,21.08c-2.76,0-5,2.24-5,5s2.24,5,5,5,5-2.24,5-5-2.24-5-5-5h0Z"/>
  </g>
</svg>